<!-- <svg xmlns="http://www.w3.org/2000/svg" version="1.1" xmlns:xlink="http://www.w3.org/1999/xlink" xmlns:svgjs="http://svgjs.dev/svgjs" viewBox="0 0 600 600"><path d="M87.70919799804688,394.14227294921875C26.124469757080078,361.32323328653973,47.69873809814453,99.16318003336589,113.59832000732422,79.55020904541016C179.4979019165039,59.93723805745442,487.4215431213379,224.0324363708496,483.106689453125,276.4644470214844C478.7918357849121,328.89645767211914,149.29392623901367,426.96131261189777,87.70919799804688,394.14227294921875C26.124469757080078,361.32323328653973,47.69873809814453,99.16318003336589,113.59832000732422,79.55020904541016" fill="none" transform="matrix(1.336745401523438,0,0,1.336745401523438,-57.15977013702417,-19.914783995397613)" stroke-width="3" stroke="#36ba24" stroke-opacity="1"></path><defs><linearGradient id="SvgjsLinearGradient1000" gradientTransform="rotate(288, 0.5, 0.5)"><stop stop-color="hsl(340, 45%, 50%)" offset="0"></stop><stop stop-color="hsl(340, 45%, 80%)" offset="1"></stop></linearGradient></defs></svg> -->
<!-- <svg xmlns="http://www.w3.org/2000/svg" version="1.1" xmlns:xlink="http://www.w3.org/1999/xlink" xmlns:svgjs="http://svgjs.dev/svgjs" viewBox="0 0 600 600"><path d="M87.70919799804688,394.14227294921875C26.124469757080078,361.32323328653973,47.69873809814453,99.16318003336589,113.59832000732422,79.55020904541016C179.4979019165039,59.93723805745442,487.4215431213379,224.0324363708496,483.106689453125,276.4644470214844C478.7918357849121,328.89645767211914,149.29392623901367,426.96131261189777,87.70919799804688,394.14227294921875C26.124469757080078,361.32323328653973,47.69873809814453,99.16318003336589,113.59832000732422,79.55020904541016" fill="none" transform="matrix(1.336745401523438,0,0,1.336745401523438,-57.15977013702417,-19.914783995397613)" stroke-width="3" stroke="#36ba24" stroke-opacity="1"></path><defs><linearGradient id="SvgjsLinearGradient1000" gradientTransform="rotate(288, 0.5, 0.5)"><stop stop-color="hsl(340, 45%, 50%)" offset="0"></stop><stop stop-color="hsl(340, 45%, 80%)" offset="1"></stop></linearGradient><linearGradient id="SvgjsLinearGradient1001"><stop stop-color="hsl(340, 45%, 50%)" offset="0"></stop><stop stop-color="hsl(340, 45%, 80%)" offset="1"></stop></linearGradient></defs><path d="M87.70919799804688,394.14227294921875C26.124469757080078,361.32323328653973,47.69873809814453,99.16318003336589,113.59832000732422,79.55020904541016C179.4979019165039,59.93723805745442,487.4215431213379,224.0324363708496,483.106689453125,276.4644470214844C478.7918357849121,328.89645767211914,149.29392623901367,426.96131261189777,87.70919799804688,394.14227294921875C26.124469757080078,361.32323328653973,47.69873809814453,99.16318003336589,113.59832000732422,79.55020904541016" fill-opacity="1" fill="none" opacity="1" stroke-opacity="1" stroke-width="3" stroke="#36ba24" transform="matrix(1.336745401523438,0,0,1.336745401523438,-14.973685389709715,-5.591137449987457)"></path></svg> -->
<svg xmlns="http://www.w3.org/2000/svg" version="1.1" xmlns:xlink="http://www.w3.org/1999/xlink" xmlns:svgjs="http://svgjs.dev/svgjs" viewBox="0 0 600 600"><path d="M131.64225339652364 382.37448247236875C60.120289641233924 345.89435704512266 33.969668862832236 65.42887496911347 100.26150846244161 45.81590398115773C166.553348062051 26.202932993201998 524.1631668384996 208.60356012943248 529.3932909941799 264.69665654463427C534.6234151498602 320.7897529598363 203.16421715181338 418.85460789961485 131.64225339652364 382.37448247236875C60.120289641233924 345.89435704512266 33.969668862832236 65.42887496911347 100.26150846244161 45.81590398115773 " fill="none" transform="matrix(1.2094363156640628,0,0,1.2094363156640628,-57.706199893223584,37.15782616285827)" stroke-width="3" stroke="#36ba24"></path><path d="M137.91839599609375,389.4351501464844C66.39643224080403,352.9550247192383,40.245811462402344,72.48954264322917,106.53765106201172,52.87657165527344C172.8294906616211,33.263600667317704,530.4393094380697,215.6642278035482,535.66943359375,271.75732421875C540.8995577494303,327.85042063395184,209.44035975138348,425.91527557373047,137.91839599609375,389.4351501464844C66.39643224080403,352.9550247192383,40.245811462402344,72.48954264322917,106.53765106201172,52.87657165527344" fill-opacity="1" fill="none" opacity="1" stroke-opacity="1" stroke-width="3" stroke="#36ba24" transform="matrix(1.2604076113965617,0,0,1.2604076113965617,-80.69210252655535,17.181108316702478)"></path></svg>